<svg xmlns="http://www.w3.org/2000/svg" viewBox="0 0 512 512" width="100%" height="100%">
  <defs>
    <linearGradient id="bgGrad" x1="0%" y1="0%" x2="100%" y2="100%">
      <stop offset="0%" stop-color="#16a34a"/>
      <stop offset="100%" stop-color="#0f766e"/>
    </linearGradient>
    <linearGradient id="accentGrad" x1="0%" y1="0%" x2="100%" y2="100%">
      <stop offset="0%" stop-color="#facc15"/>
      <stop offset="100%" stop-color="#eab308"/>
    </linearGradient>
  </defs>
  
  <!-- Rounded Background -->
  <rect width="512" height="512" rx="112" fill="url(#bgGrad)" />
  
  <!-- Brazil Diamond Accent -->
  <polygon points="256,96 416,256 256,416 96,256" fill="url(#accentGrad)" opacity="0.25" />
  
  <!-- Book Icon -->
  <g transform="translate(136, 140) scale(10)" fill="none" stroke="#ffffff" stroke-width="2" stroke-linecap="round" stroke-linejoin="round">
    <path d="M4 19.5A2.5 2.5 0 0 1 6.5 17H20" />
    <path d="M6.5 2H20v20H6.5A2.5 2.5 0 0 1 4 19.5v-15A2.5 2.5 0 0 1 6.5 2z" />
    <path d="M8 7h8" />
    <path d="M8 11h6" />
  </g>
</svg>
